Track list

1. Got Me Under Pressure
2. Waitinâ™ For The Bus
3. Jesus Just Left Chicago
4. Iâ™m Bad, Iâ™m Nationwide
5. Pin Cushion
6. Cheap Sunglasses
7. Pearl Necklace
8. Heard It On The X
9. Just Got Paid
10. Rough Boy
11. Blue Jean Blues
12. Gimme All Your Lovinâ™
13. Sharp Dressed Man
14. Legs
15. Tube Snake Boogie
16. La Grange
17. Tush

General
Zztop Live From Texas Mp4 720p AAC Multichannel.mp4
Format : MPEG-4
Format profile : Base Media
Codec ID : isom
File size : 1.85 GiB
Duration : 1h 25mn
Overall bit rate mode : Variable
Overall bit rate : 3 094 Kbps
Encoded date : UTC 2012-12-30 12:25:35
Tagged date : UTC 2012-12-30 12:25:35

Video
ID : 1
Format : AVC
Format/Info : Advanced Video Codec
Format profile : High@L4.0
Format settings, CABAC : Yes
Format settings, ReFrames : 3 frames
Codec ID : avc1
Codec ID/Info : Advanced Video Coding
Duration : 1h 25mn
Bit rate mode : Variable
Bit rate : 2 770 Kbps
Maximum bit rate : 25.0 Mbps
Width : 1 280 pixels
Height : 720 pixels
Display aspect ratio : 16:9
Frame rate mode : Constant
Frame rate : 29.970 fps
Color space : YUV
Chroma subsampling : 4:2:0
Bit depth : 8 bits
Scan type : Progressive
Bits/(Pixel*Frame) : 0.100
Stream size : 1.66 GiB (90%)
Writing library : x264 core 125 r2208 d9d2288
Encoding settings : cabac=1 / ref=3 / deblock=1:0:0 / analyse=0x3:0x113 / me=hex / subme=7 / psy=1 / psy_rd=1.00:0.00 / mixed_ref=1 / me_range=16 / chroma_me=1 / trellis=1 / 8x8dct=1 / cqm=0 / deadzone=21,11 / fast_pskip=1 / chroma_qp_offset=-2 / threads=12 / lookahead_threads=2 / sliced_threads=0 / nr=0 / decimate=1 / interlaced=0 / bluray_compat=0 / constrained_intra=0 / bframes=3 / b_pyramid=0 / b_adapt=1 / b_bias=0 / direct=1 / weightb=1 / open_gop=0 / weightp=2 / keyint=300 / keyint_min=30 / scenecut=40 / intra_refresh=0 / rc_lookahead=40 / rc=crf / mbtree=1 / crf=24.0 / qcomp=0.60 / qpmin=0 / qpmax=69 / qpstep=4 / vbv_maxrate=25000 / vbv_bufsize=25000 / crf_max=0.0 / nal_hrd=vbr / ip_ratio=1.40 / aq=1:1.00
Encoded date : UTC 2012-12-30 12:25:35
Tagged date : UTC 2012-12-30 12:25:59

Audio
ID : 2
Format : AAC
Format/Info : Advanced Audio Codec
Format profile : LC
Codec ID : 40
Duration : 1h 25mn
Bit rate mode : Variable
Bit rate : 320 Kbps
Maximum bit rate : 333 Kbps
Channel(s) : 6 channels
Channel positions : Front: L C R, Side: L R, LFE
Sampling rate : 48.0 KHz
Compression mode : Lossy
Stream size : 196 MiB (10%)
Title : xé,
Language : English
Encoded date : UTC 2012-12-30 12:25:55
Tagged date : UTC 2012-12-30 12:25:59